# xmcd
#
# Track frame offsets:
#  183
#  16850
#  31910
#  46080
#  63450
#  79350
#  94560
#  108510
#  122880
#  137080
#
# Disc length: 2038 seconds
#
# Revision: 0
# Processed by: cddbd v1.4PL0 Copyright (c) Steve Scherf et al.
# Submitted via: FCDBAsst 2.0
#
DISCID=7c07f40a
DTITLE=Nitty Gritty Dirt Band - More Great Dirt
DYEAR=1900
DGENRE=
TTITLE0=Cadillac Ranch
TTITLE1=I've Been Lookin'
TTITLE2=Oh What A Love
TTITLE3=Workin' Man (Nowhere To Go)
TTITLE4=I Love Only You
TTITLE5=Fishin' In the Dark
TTITLE6=Baby's Got A Hold On Me
TTITLE7=Face On the Cutting Room Floor
TTITLE8=Down That Road Tonight
TTITLE9=Home Again In My Heart
EXTD=
EXTT0=
EXTT1=
EXTT2=
EXTT3=
EXTT4=
EXTT5=
EXTT6=
EXTT7=
EXTT8=
EXTT9=
PLAYORDER=
